<svg width="49" height="49" viewBox="0 0 49 49" fill="none" xmlns="http://www.w3.org/2000/svg">
<path d="M20.5 30.5L30.88 24.5L20.5 18.5V30.5ZM43.62 14.84C43.88 15.78 44.06 17.04 44.18 18.64C44.32 20.24 44.38 21.62 44.38 22.82L44.5 24.5C44.5 28.88 44.18 32.1 43.62 34.16C43.12 35.96 41.96 37.12 40.16 37.62C39.22 37.88 37.5 38.06 34.86 38.18C32.26 38.32 29.88 38.38 27.68 38.38L24.5 38.5C16.12 38.5 10.9 38.18 8.84 37.62C7.04 37.12 5.88 35.96 5.38 34.16C5.12 33.22 4.94 31.96 4.82 30.36C4.68 28.76 4.62 27.38 4.62 26.18L4.5 24.5C4.5 20.12 4.82 16.9 5.38 14.84C5.88 13.04 7.04 11.88 8.84 11.38C9.78 11.12 11.5 10.94 14.14 10.82C16.74 10.68 19.12 10.62 21.32 10.62L24.5 10.5C32.88 10.5 38.1 10.82 40.16 11.38C41.96 11.88 43.12 13.04 43.62 14.84V14.84Z" fill="#103E5C"/>
</svg>
