<svg width="48" height="49" viewBox="0 0 48 49" fill="none" xmlns="http://www.w3.org/2000/svg">
<path d="M20 30.5L30.38 24.5L20 18.5V30.5ZM43.12 14.84C43.38 15.78 43.56 17.04 43.68 18.64C43.82 20.24 43.88 21.62 43.88 22.82L44 24.5C44 28.88 43.68 32.1 43.12 34.16C42.62 35.96 41.46 37.12 39.66 37.62C38.72 37.88 37 38.06 34.36 38.18C31.76 38.32 29.38 38.38 27.18 38.38L24 38.5C15.62 38.5 10.4 38.18 8.34 37.62C6.54 37.12 5.38 35.96 4.88 34.16C4.62 33.22 4.44 31.96 4.32 30.36C4.18 28.76 4.12 27.38 4.12 26.18L4 24.5C4 20.12 4.32 16.9 4.88 14.84C5.38 13.04 6.54 11.88 8.34 11.38C9.28 11.12 11 10.94 13.64 10.82C16.24 10.68 18.62 10.62 20.82 10.62L24 10.5C32.38 10.5 37.6 10.82 39.66 11.38C41.46 11.88 42.62 13.04 43.12 14.84Z" fill="#103E5C"/>
</svg>
